<?xml version="1.0" standalone="no"?>
<!DOCTYPE svg PUBLIC "-//W3C//DTD SVG 20010904//EN"
 "http://www.w3.org/TR/2001/REC-SVG-20010904/DTD/svg10.dtd">
<svg version="1.0" xmlns="http://www.w3.org/2000/svg"
 width="300.000000pt" height="300.000000pt" viewBox="0 0 300.000000 300.000000"
 preserveAspectRatio="xMidYMid meet">
<metadata>
Created by potrace 1.11, written by Peter Selinger 2001-2013
</metadata>
<g transform="translate(0.000000,300.000000) scale(0.100000,-0.100000)"
fill="#000000" stroke="none">
<path d="M1345 2599 c-153 -22 -312 -83 -449 -172 -189 -123 -332 -297 -420
-509 l-34 -83 -131 -3 -131 -3 0 -34 0 -35 121 0 121 0 -6 -32 c-21 -104 -27
-233 -16 -333 6 -58 13 -112 17 -120 4 -13 -14 -15 -116 -15 l-121 0 0 -35 0
-35 129 0 129 0 17 -52 c48 -147 142 -297 265 -420 338 -338 837 -422 1265
-214 61 30 142 78 180 107 176 132 317 324 384 522 l18 52 124 5 124 5 0 30 0
30 -113 3 -114 3 9 52 c10 66 11 305 0 375 l-8 52 116 0 115 0 0 35 0 34 -127
3 -126 3 -17 50 c-93 271 -294 497 -556 629 -193 97 -434 136 -649 105z m416
-98 c386 -105 668 -401 756 -796 21 -94 21 -316 0 -410 -88 -393 -370 -691
-752 -795 -120 -33 -338 -39 -465 -12 -483 100 -830 523 -830 1012 0 484 342
906 820 1011 116 26 359 20 471 -10z"/>
<path d="M1260 2101 l0 -291 -145 0 -145 0 0 -35 0 -35 185 0 185 0 -2 323 -3
322 -37 3 -38 3 0 -290z"/>
<path d="M1670 2065 l0 -325 185 0 185 0 0 35 0 35 -145 0 -145 0 0 290 0 290
-40 0 -40 0 0 -325z"/>
<path d="M1441 1695 c-154 -49 -191 -250 -65 -354 115 -94 286 -36 325 112 41
150 -110 290 -260 242z"/>
<path d="M970 1225 l0 -35 145 0 145 0 0 -291 0 -290 38 3 37 3 3 323 2 322
-185 0 -185 0 0 -35z"/>
<path d="M1670 935 l0 -325 40 0 40 0 0 290 0 290 145 0 145 0 0 35 0 35 -185
0 -185 0 0 -325z"/>
</g>
</svg>
